<svg width="133" height="32" viewBox="0 0 133 32" fill="none" xmlns="http://www.w3.org/2000/svg">
<rect width="133" height="32" rx="5" fill="#9AD0C2"/>
<path d="M17.6519 25.026C16.6292 25.026 15.7019 24.8007 14.8699 24.35C14.0552 23.882 13.4139 23.2407 12.9459 22.426C12.4952 21.594 12.2699 20.6493 12.2699 19.592C12.2699 17.8587 12.9026 16.5673 14.1679 15.718C15.4506 14.8687 17.0192 14.444 18.8739 14.444C19.7232 14.444 20.5119 14.652 21.2399 15.068C21.9852 15.484 22.5832 16.082 23.0339 16.862C23.4846 17.642 23.7099 18.5433 23.7099 19.566C23.7099 20.6753 23.4239 21.646 22.8519 22.478C22.2799 23.2927 21.5259 23.9253 20.5899 24.376C19.6712 24.8093 18.6919 25.026 17.6519 25.026ZM17.3659 23.544C18.9779 23.544 20.1999 23.18 21.0319 22.452C21.8639 21.724 22.2799 20.658 22.2799 19.254C22.2799 18.3007 21.9506 17.4773 21.2919 16.784C20.6506 16.0907 19.7492 15.744 18.5879 15.744C17.8079 15.744 17.0192 15.8913 16.2219 16.186C15.4246 16.4807 14.7659 16.9227 14.2459 17.512C13.7259 18.1013 13.4659 18.812 13.4659 19.644C13.4659 20.3373 13.6392 20.9873 13.9859 21.594C14.3326 22.1833 14.8006 22.66 15.3899 23.024C15.9966 23.3707 16.6552 23.544 17.3659 23.544ZM37.4257 25C36.715 23.6133 36.1517 21.984 35.7357 20.112C35.337 18.24 35.1377 16.6193 35.1377 15.25C35.1377 14.7127 35.259 14.366 35.5017 14.21C35.6404 14.1233 35.7444 14.08 35.8137 14.08C35.935 14.08 36.0217 14.1753 36.0737 14.366C36.143 14.5567 36.2124 14.9033 36.2817 15.406L36.4117 16.342C36.6024 15.406 36.9664 14.6693 37.5037 14.132C38.0584 13.5773 38.7344 13.3 39.5317 13.3C40.4157 13.3 41.0744 13.4733 41.5077 13.82C41.941 14.1493 42.1577 14.704 42.1577 15.484C41.291 15.068 40.5024 14.86 39.7917 14.86C39.1157 14.86 38.535 15.042 38.0497 15.406C37.5644 15.77 37.2264 16.3073 37.0357 17.018C36.8797 17.5033 36.8017 17.9627 36.8017 18.396C36.8017 18.864 36.8624 19.306 36.9837 19.722C37.1224 20.1207 37.3304 20.6147 37.6077 21.204C37.8677 21.8107 38.067 22.3307 38.2057 22.764C38.3617 23.1973 38.4484 23.6653 38.4657 24.168C38.4657 24.4627 38.3617 24.6793 38.1537 24.818C37.9457 24.9393 37.703 25 37.4257 25ZM59.5405 25.026C58.1539 25.026 57.0619 24.7573 56.2645 24.22C55.4672 23.6653 54.8779 22.8333 54.4965 21.724C54.1152 20.5973 53.8639 19.0893 53.7425 17.2L52.9885 12.806C52.9192 12.1647 52.8239 11.5407 52.7025 10.934C52.5812 10.3273 52.5205 9.894 52.5205 9.634C52.5205 9.27 52.6245 9.00133 52.8325 8.828C53.0405 8.63733 53.4132 8.50733 53.9505 8.438C54.0545 9.30467 54.1239 9.95467 54.1585 10.388C54.3492 12.0693 54.5052 13.3607 54.6265 14.262C54.7652 15.146 54.9385 16.0733 55.1465 17.044C56.4812 16.4547 57.7639 16.16 58.9945 16.16C60.1039 16.16 61.0919 16.394 61.9585 16.862C62.8252 17.3127 63.5012 17.954 63.9865 18.786C64.4719 19.6007 64.7145 20.5193 64.7145 21.542C64.7145 22.738 64.1859 23.622 63.1285 24.194C62.0885 24.7487 60.8925 25.026 59.5405 25.026ZM63.2585 21.594C63.2759 21.4727 63.2845 21.2993 63.2845 21.074C63.2845 19.8433 62.8599 18.9247 62.0105 18.318C61.1785 17.7113 59.9912 17.408 58.4485 17.408C57.4952 17.408 56.7499 17.5987 56.2125 17.98C55.6925 18.344 55.4325 18.8467 55.4325 19.488C55.4325 20.9613 55.8312 22.036 56.6285 22.712C57.4432 23.388 58.6825 23.726 60.3465 23.726C61.1439 23.726 61.8112 23.544 62.3485 23.18C62.8859 22.816 63.1892 22.2873 63.2585 21.594ZM77.3849 25.026C76.9862 25.026 76.6655 24.4453 76.4229 23.284C76.1802 22.1053 76.0242 21.0913 75.9549 20.242C75.8855 19.3927 75.7902 18.0493 75.6689 16.212C75.6515 15.9173 75.6429 15.536 75.6429 15.068C75.6429 14.4787 75.6862 14.0713 75.7729 13.846C75.8769 13.6207 76.0415 13.508 76.2669 13.508C76.4575 13.508 76.6049 13.5513 76.7089 13.638C76.8302 13.7073 76.9342 13.8287 77.0209 14.002L76.9949 15.042C76.9949 16.1513 77.0469 17.2 77.1509 18.188C77.2722 19.176 77.4542 20.502 77.6969 22.166C77.8355 22.894 77.9309 23.492 77.9829 23.96C78.0175 24.2027 77.9742 24.4453 77.8529 24.688C77.7315 24.9133 77.5755 25.026 77.3849 25.026ZM76.7349 10.726C76.3535 10.726 76.0675 10.5787 75.8769 10.284C75.7035 9.98933 75.6169 9.62533 75.6169 9.192C75.6169 9.00133 75.6255 8.86267 75.6429 8.776C75.6255 8.49867 75.7815 8.36 76.1109 8.36C76.3535 8.36 76.5962 8.42067 76.8389 8.542C77.0989 8.646 77.1769 8.724 77.0729 8.776C77.2462 9.22667 77.3329 9.582 77.3329 9.842C77.3329 10.0673 77.2809 10.2493 77.1769 10.388C77.0729 10.5093 76.9255 10.622 76.7349 10.726ZM93.8607 25C93.6874 25.0347 93.5747 25.052 93.5227 25.052C92.9854 25.052 92.6127 24.6533 92.4047 23.856C92.2141 23.0587 92.1187 21.9407 92.1187 20.502C92.1187 19.9127 92.1361 18.994 92.1707 17.746C92.2054 16.9833 92.2227 16.4113 92.2227 16.03C90.0907 16.03 89.0247 15.7873 89.0247 15.302C89.0247 15.146 89.0421 15.0247 89.0767 14.938C89.1287 14.8513 89.2327 14.808 89.3887 14.808L92.2227 14.626C92.2054 13.7767 92.1621 12.8493 92.0927 11.844C92.0234 10.9427 91.9801 10.1107 91.9627 9.348C91.9627 9.15733 92.0407 9.02733 92.1967 8.958C92.3527 8.87133 92.5174 8.828 92.6907 8.828C92.8987 8.828 93.0721 8.94067 93.2107 9.166C93.3494 9.374 93.4187 9.59067 93.4187 9.816L93.6007 14.574L95.7587 14.678C96.0881 14.6433 96.3654 14.704 96.5907 14.86C96.8334 15.016 96.9634 15.276 96.9807 15.64C96.6167 15.796 96.2181 15.8913 95.7847 15.926C95.3514 15.9607 94.6234 15.978 93.6007 15.978C93.6007 17.59 93.6787 20.242 93.8347 23.934C93.8347 24.3153 93.8347 24.584 93.8347 24.74C93.8521 24.8787 93.8607 24.9653 93.8607 25ZM114.451 25C112.648 25 111.08 24.688 109.745 24.064C108.428 23.4227 107.769 22.3047 107.769 20.71C107.769 20.138 107.942 19.5833 108.289 19.046C108.636 18.5087 109.147 18.0753 109.823 17.746C110.499 17.3993 111.322 17.226 112.293 17.226C113.038 17.226 113.671 17.2607 114.191 17.33C114.711 17.3993 115.309 17.59 115.985 17.902C116.661 18.214 117.363 18.708 118.091 19.384C117.814 18.188 117.398 17.1393 116.843 16.238C116.288 15.3367 115.664 14.6433 114.971 14.158C114.295 13.6553 113.628 13.404 112.969 13.404C112.657 13.404 112.362 13.4647 112.085 13.586C111.825 13.69 111.504 13.846 111.123 14.054C110.69 14.3313 110.369 14.47 110.161 14.47C110.074 14.47 109.996 14.444 109.927 14.392C109.875 14.3227 109.849 14.2447 109.849 14.158C109.849 13.4647 110.152 12.9273 110.759 12.546C111.383 12.1647 112.137 11.9913 113.021 12.026C114.234 12.0953 115.344 12.6153 116.349 13.586C117.354 14.5393 118.143 15.7267 118.715 17.148C119.304 18.5693 119.599 19.9647 119.599 21.334C119.599 21.5593 119.582 21.88 119.547 22.296L118.715 22.244C118.056 20.9093 117.207 19.9647 116.167 19.41C115.144 18.838 114.113 18.552 113.073 18.552C111.738 18.552 110.785 18.7513 110.213 19.15C109.641 19.5487 109.355 20.1293 109.355 20.892C109.355 21.6893 109.754 22.3307 110.551 22.816C111.348 23.3013 112.371 23.544 113.619 23.544C114.312 23.544 114.867 23.5093 115.283 23.44C115.699 23.3533 116.132 23.2407 116.583 23.102C116.947 22.9807 117.268 22.894 117.545 22.842C117.822 22.79 118.178 22.764 118.611 22.764C119.096 22.764 119.4 22.7987 119.521 22.868C119.66 22.9373 119.729 23.0933 119.729 23.336C119.729 23.5093 119.374 23.726 118.663 23.986C117.952 24.246 117.155 24.48 116.271 24.688C115.387 24.896 114.78 25 114.451 25Z" fill="white"/>
</svg>
